<svg id="Layer_1" data-name="Layer 1" xmlns="http://www.w3.org/2000/svg" viewBox="0 0 37.15 37.15"><defs><style>.cls-1{fill:#8e99a8;}</style></defs><title>SOCIAL-ICONS</title><path id="Dribbble" class="cls-1" d="M35.37,11.47a18.69,18.69,0,0,0-1.7-3.1,19.86,19.86,0,0,0-2.2-2.7,14.42,14.42,0,0,0-2.7-2.2,18.69,18.69,0,0,0-3.1-1.7,22.4,22.4,0,0,0-3.4-1.1,22.06,22.06,0,0,0-3.7-.4,15.53,15.53,0,0,0-3.7.4,13.52,13.52,0,0,0-3.4,1.1,18.69,18.69,0,0,0-3.1,1.7,19.86,19.86,0,0,0-2.7,2.2,14.42,14.42,0,0,0-2.2,2.7,18.69,18.69,0,0,0-1.7,3.1,22.4,22.4,0,0,0-1.1,3.4,22.06,22.06,0,0,0-.4,3.7,15.53,15.53,0,0,0,.4,3.7,13.52,13.52,0,0,0,1.1,3.4,18.69,18.69,0,0,0,1.7,3.1,19.86,19.86,0,0,0,2.2,2.7,14.42,14.42,0,0,0,2.7,2.2,18.69,18.69,0,0,0,3.1,1.7,22.4,22.4,0,0,0,3.4,1.1,15,15,0,0,0,3.7.4,15.53,15.53,0,0,0,3.7-.4,13.52,13.52,0,0,0,3.4-1.1,18.69,18.69,0,0,0,3.1-1.7,19.86,19.86,0,0,0,2.7-2.2,14.42,14.42,0,0,0,2.2-2.7,18.69,18.69,0,0,0,1.7-3.1,22.4,22.4,0,0,0,1.1-3.4,22.06,22.06,0,0,0,.4-3.7,15.53,15.53,0,0,0-.4-3.7A22.4,22.4,0,0,0,35.37,11.47ZM18.47,3a15.45,15.45,0,0,1,10.3,3.9c0,.1-2.3,3.5-8.2,5.7a70.11,70.11,0,0,0-5.9-9.1A17.26,17.26,0,0,1,18.47,3Zm-3.7.4h0C14.67,3.47,14.77,3.47,14.77,3.37Zm-3,1.1a99,99,0,0,1,5.8,9,57.61,57.61,0,0,1-14.5,1.9A16.27,16.27,0,0,1,11.77,4.47Zm-4.9,24.6a15.55,15.55,0,0,1-4-10.5v-.5A57.71,57.71,0,0,0,19,15.87c.4.9.9,1.8,1.3,2.7-.2.1-.4.1-.6.2-8.5,2.7-12.8,10.3-12.8,10.3Zm11.6,5.2a15.94,15.94,0,0,1-9.8-3.4c-.1,0-.1-.1-.2-.2l.2.2a.31.31,0,0,0,.2.1s3-6.5,12.3-9.8h.1a60.22,60.22,0,0,1,3.3,11.9A15.09,15.09,0,0,1,18.47,34.27Zm8.8-2.7a80.5,80.5,0,0,0-3-11.2,23.15,23.15,0,0,1,9.8.7A15.94,15.94,0,0,1,27.27,31.57Zm-4-13.6c-.1-.3-.2-.5-.3-.8-.3-.8-.7-1.5-1-2.3,6.2-2.5,8.7-6.2,8.7-6.2a16.12,16.12,0,0,1,3.6,9.8A34.8,34.8,0,0,0,23.27,18Z"/></svg>