<svg id="Layer_1" data-name="Layer 1" xmlns="http://www.w3.org/2000/svg" viewBox="0 0 37.15 37.15"><defs><style>.cls-1{fill:#8e99a8;}</style></defs><title>SOCIAL-ICONS</title><g id="LinkedIn"><rect class="cls-1" x="1.07" y="11.69" width="7.2" height="22.8"/><path class="cls-1" d="M27.87,11.49c-4.1,0-6.7,2.2-7.2,3.8v-3.6h-8.1c.1,1.9,0,22.8,0,22.8h8.1V22.19a5.55,5.55,0,0,1,.2-1.9,4.08,4.08,0,0,1,3.9-2.8c2.8,0,4.1,2.1,4.1,5.2v11.8h8.2V21.79C37,14.79,33,11.49,27.87,11.49Z"/><path class="cls-1" d="M4.47,1C1.77,1,.07,2.69.07,5s1.7,3.9,4.3,3.9h.1c2.7,0,4.4-1.7,4.4-4A4,4,0,0,0,4.47,1Z"/></g></svg>