<svg id="Layer_1" data-name="Layer 1" xmlns="http://www.w3.org/2000/svg" viewBox="0 0 37.15 37.15"><defs><style>.cls-1{fill:#8e99a8;}</style></defs><title>SOCIAL-ICONS</title><path id="Twitter" class="cls-1" d="M35.65,6.06a13.49,13.49,0,0,1-4.79,1.86,7.54,7.54,0,0,0-5.48-2.45,7.65,7.65,0,0,0-7.54,7.74A10.66,10.66,0,0,0,18,15a21.19,21.19,0,0,1-15.47-8,7.59,7.59,0,0,0-1,3.92,8.15,8.15,0,0,0,3.33,6.46,7,7,0,0,1-3.43-1v.1A7.58,7.58,0,0,0,7.56,24a6.13,6.13,0,0,1-1.95.3,5.88,5.88,0,0,1-1.37-.1,7.66,7.66,0,0,0,7,5.38A14.73,14.73,0,0,1,2,32.88a10.45,10.45,0,0,1-1.76-.1,21.05,21.05,0,0,0,11.55,3.43c13.8,0,21.44-11.75,21.44-21.93v-1a14.39,14.39,0,0,0,3.72-4,13.43,13.43,0,0,1-4.31,1.18A9.62,9.62,0,0,0,35.65,6.06Z"/></svg>